<?xml version="1.0" encoding="utf-8"?>
<!-- Generator: Adobe Illustrator 23.0.3, SVG Export Plug-In . SVG Version: 6.00 Build 0)  -->
<svg version="1.1" id="Calque_1" xmlns="http://www.w3.org/2000/svg" xmlns:xlink="http://www.w3.org/1999/xlink" x="0px" y="0px"
	 viewBox="0 0 116.6 120.8" style="enable-background:new 0 0 116.6 120.8;" xml:space="preserve">
<style type="text/css">
	.st0{fill:#FFFFFF;stroke:#4E4D4D;stroke-width:9;stroke-miterlimit:10;}
</style>
<path class="st0" d="M111.2,68.1c-18-20-36-40-54-60c-1.8-2-4.3-3.2-7-3.3c-11.7-0.5-23.3-1-35-1.5C9.6,3,4.8,7.4,4.5,13
	C3.8,24.5,3.1,36.1,2.4,47.6c-0.2,2.7,0.8,5.3,2.6,7.3c18,20,36,40,53.9,60c3.7,4.1,10.2,4.5,14.4,0.7l37-33.1
	C114.6,78.7,115,72.2,111.2,68.1z M29.6,39.9c-6.5,0-11.8-5.3-11.8-11.8s5.3-11.8,11.8-11.8s11.8,5.3,11.8,11.8S36.1,39.9,29.6,39.9
	z"/>
</svg>
