<?xml version="1.0" encoding="utf-8"?>
<!-- Generator: Adobe Illustrator 23.0.3, SVG Export Plug-In . SVG Version: 6.00 Build 0)  -->
<svg version="1.1" id="Calque_1" xmlns="http://www.w3.org/2000/svg" xmlns:xlink="http://www.w3.org/1999/xlink" x="0px" y="0px"
	 viewBox="0 0 1830.6 476.3" style="enable-background:new 0 0 1830.6 476.3;" xml:space="preserve">
<style type="text/css">
	.st0{fill:#21BBC5;}
	.st1{fill:#FFFFFF;}
	.st2{fill:#C4C4C4;}
	.st3{fill:#21BBC5;stroke:#209EA6;}
	.st4{fill:#414141;}
	.st5{opacity:0.25;}
	.st6{fill:#356864;}
	.st7{font-family:'Play-Bold';}
	.st8{font-size:199.4347px;}
	.st9{letter-spacing:0.9;}
	.st10{font-family:'Play-Regular';}
	.st11{font-size:203px;}
	.st12{font-size:196.1287px;}
	.st13{letter-spacing:1.7;}
</style>
<g>
	<circle class="st0" cx="237.4" cy="239.1" r="224.8"/>
	<circle class="st1" cx="237.4" cy="239.1" r="196.9"/>
	<path class="st2" d="M237.8,53.3l35.1,186.3h-70.1L237.8,53.3z"/>
	<path class="st2" d="M237.8,425.6l-35.1-186.3h70.1L237.8,425.6z"/>
	<path class="st2" d="M51.6,239.5l186.3-35.1v70.1L51.6,239.5z"/>
	<path class="st2" d="M423.9,239.5l-186.3,35.1v-70.1L423.9,239.5z"/>
	<path class="st2" d="M148.1,150.1l106.8,72.9l-33.8,33.8L148.1,150.1z"/>
	<path class="st2" d="M327.7,329.7l-106.8-72.9l33.8-33.8L327.7,329.7z"/>
	<path class="st2" d="M148.1,329.7l72.9-106.8l33.8,33.8L148.1,329.7z"/>
	<path class="st2" d="M327.7,150.1l-72.9,106.8l-33.8-33.8L327.7,150.1z"/>
	<path class="st3" d="M190.2,224.5l93.7-146.7l2.1,174.1L190.2,224.5z"/>
	<path class="st4" d="M190.5,404.6L188.4,225l98.9,28.3L190.5,404.6z"/>
	<circle class="st2" cx="237.1" cy="241.4" r="23.8"/>
</g>
<g class="st5">
	<text transform="matrix(1.1316 0 0 1 507.3034 329.2126)" class="st6 st7 st8 st9">GPX</text>
	<text transform="matrix(1.1119 0 0 1 964.0544 329.2126)" class="st6 st10 st11 st9">perience</text>
</g>
<text transform="matrix(1.15 0 0 1 507.738 318.2692)" class="st4 st7 st12 st13">GPX</text>
<text transform="matrix(1.13 0 0 1 966.947 318.2692)" class="st4 st10 st12 st9">perience</text>
</svg>
