<?xml version="1.0" encoding="utf-8"?>
<!-- Generator: Adobe Illustrator 23.0.3, SVG Export Plug-In . SVG Version: 6.00 Build 0)  -->
<svg version="1.1" id="Calque_1" xmlns="http://www.w3.org/2000/svg" xmlns:xlink="http://www.w3.org/1999/xlink" x="0px" y="0px"
	 viewBox="0 0 1830.6 476.3" style="enable-background:new 0 0 1830.6 476.3;" xml:space="preserve">
<style type="text/css">
	.st0{fill:#21BBC5;}
	.st1{fill:#FFFFFF;}
	.st2{fill:#C4C4C4;}
	.st3{fill:#21BBC5;stroke:#209EA6;}
	.st4{fill:#414141;}
	.st5{opacity:0.25;}
	.st6{fill:#356864;}
</style>
<g>
	<circle class="st0" cx="237.4" cy="239.1" r="224.8"/>
	<circle class="st1" cx="237.4" cy="239.1" r="196.9"/>
	<path class="st2" d="M237.8,53.3l35.1,186.3h-70.1L237.8,53.3z"/>
	<path class="st2" d="M237.8,425.6l-35.1-186.3h70.1L237.8,425.6z"/>
	<path class="st2" d="M51.6,239.5l186.3-35.1v70.1L51.6,239.5z"/>
	<path class="st2" d="M423.9,239.5l-186.3,35.1v-70.1L423.9,239.5z"/>
	<path class="st2" d="M148.1,150.1l106.8,72.9l-33.8,33.8L148.1,150.1z"/>
	<path class="st2" d="M327.7,329.7l-106.8-72.9l33.8-33.8L327.7,329.7z"/>
	<path class="st2" d="M148.1,329.7l72.9-106.8l33.8,33.8L148.1,329.7z"/>
	<path class="st2" d="M327.7,150.1l-72.9,106.8l-33.8-33.8L327.7,150.1z"/>
	<path class="st3" d="M190.2,224.5l93.7-146.7l2.1,174.1L190.2,224.5z"/>
	<path class="st4" d="M190.5,404.6L188.4,225l98.9,28.3L190.5,404.6z"/>
	<circle class="st2" cx="237.1" cy="241.4" r="23.8"/>
</g>
<g class="st5">
	<path class="st6" d="M570.5,330.2c-6.5-0.7-12.9-1.8-19.2-3.4c-6.8-1.6-12.3-3.8-16.7-6.5c-4.4-2.7-7.9-6.3-10.6-10.7
		c-2.7-4.7-4.1-10-4.1-16v-53.8c0-6.5,1.5-12.4,4.5-17.6c3-5.3,7.1-9.4,12.2-12.5c4.8-2.8,10.6-5.2,17.3-7.2c6.7-2,13.3-3.3,19.7-4
		c5.4-0.5,12-0.8,19.6-0.8c20.8,0,40.6,1.4,59.6,4.2v23.5c-17.5-3.7-37.3-5.6-59.6-5.6c-25.4,0-38.1,6.5-38.1,19.5v52.1
		c0,6.4,3.4,10.9,10.3,13.6c6.8,2.7,17.2,4,31,4c7.4,0,15.3-1,23.7-3V276h-23.9v-20.3h57.5v67.2c-7.5,2.4-17.1,4.4-28.8,6
		c-11.7,1.6-22.4,2.4-32.2,2.4C584.4,331.2,577,330.9,570.5,330.2z"/>
	<path class="st6" d="M683.3,199.8H742c14.3,0,25.6,0.9,34,2.6c8.3,1.7,14.4,4.8,18.3,9.1c3.8,4.3,5.8,10.3,5.8,18V254
		c0,8.5-2.1,15.2-6.2,19.9c-4.1,4.8-10.7,8.2-19.6,10.2c-9,2-21,3-36.2,3h-19.4v42.1h-35.2V199.8z M740.9,265.8
		c9.2,0,15.6-1,19.4-2.9c3.8-1.9,5.6-5.2,5.6-9.9v-20.7c0-4.3-1.8-7-5.4-8.4c-3.5-1.3-10.2-2-20.1-2h-21.9v43.9H740.9z"/>
	<path class="st6" d="M866.3,263.2l-51.7-63.4h40.6l31.4,43.1l31.1-43.1h40.6l-51.7,63.4l54.2,66h-40.8l-33.4-45.9L853,329.2h-40.6
		L866.3,263.2z"/>
	<path class="st6" d="M981.7,231h20.1v10.6h0.2c1.7-8.4,14.1-12.6,37.2-12.6c13.8,0,24.3,2.6,31.4,7.8c7.1,5.2,10.6,11.9,10.6,20
		v40.4c0,5.8-0.9,10.9-2.8,15.2c-1.9,4.3-4.3,7.7-7.3,10.1c-2.7,2.3-6.4,4.1-11.2,5.5c-4.7,1.4-9.4,2.2-14.1,2.6
		c-4.2,0.4-9.3,0.6-15.3,0.6c-6.6,0-12.7-0.7-18.2-2.1c-5.5-1.4-8.9-3.5-10.3-6.2v48.5h-20.3V231z M1048.8,317.3
		c4.1-1,7.1-2.9,8.9-5.6c1.8-2.7,2.7-6.8,2.7-12.4v-36.1c0-6.1-0.9-10.6-2.7-13.6c-1.8-3-4.8-5-8.9-6c-4.1-1-10.2-1.5-18.2-1.5
		c-8,0-13.9,0.5-17.8,1.5c-3.9,1-6.7,3-8.4,5.9c-1.7,2.9-2.5,7.5-2.5,13.7v36.1c0,5.6,0.9,9.7,2.6,12.4c1.7,2.7,4.6,4.6,8.7,5.6
		c4.1,1,9.9,1.5,17.6,1.5C1038.7,318.9,1044.7,318.4,1048.8,317.3z"/>
	<path class="st6" d="M1109.4,301.2v-38.8c0-11.9,3.8-20.5,11.4-25.7c7.6-5.2,19.9-7.8,36.9-7.8c16.1,0,27.7,2.5,34.9,7.5
		c7.1,5,10.7,13.7,10.7,26v21.7h-73.4V299c0,6.8,2.6,11.6,7.9,14.6c5.3,3,13.4,4.5,24.4,4.5c10.4,0,22.6-1.6,36.8-4.9v14
		c-13.8,2.7-27,4.1-39.5,4.1C1126.1,331.2,1109.4,321.2,1109.4,301.2z M1183,272.2v-15.4c0-6-2-10-6-12.3c-4-2.2-10.8-3.3-20.4-3.3
		c-9.3,0-16.1,1.1-20.3,3.3c-4.2,2.2-6.3,6.3-6.3,12.3v15.4H1183z"/>
	<path class="st6" d="M1235.4,231h19.2v16c0-3.1,1.5-6.1,4.5-8.8c3-2.8,6.8-5,11.5-6.7c4.7-1.7,9.3-2.5,13.8-2.5h9.9v15.6H1283
		c-9.6,0-16.6,1.1-20.9,3.3c-4.3,2.2-6.4,6.3-6.4,12.1v69.2h-20.3V231z"/>
	<path class="st6" d="M1315.7,195.4h20.3v19.1h-20.3V195.4z M1315.7,231h20.3v98.3h-20.3V231z"/>
	<path class="st6" d="M1368.3,301.2v-38.8c0-11.9,3.8-20.5,11.4-25.7c7.6-5.2,19.9-7.8,36.9-7.8c16.1,0,27.7,2.5,34.9,7.5
		c7.1,5,10.7,13.7,10.7,26v21.7h-73.4V299c0,6.8,2.6,11.6,7.9,14.6c5.3,3,13.4,4.5,24.4,4.5c10.4,0,22.6-1.6,36.8-4.9v14
		c-13.8,2.7-27,4.1-39.5,4.1C1385,331.2,1368.3,321.2,1368.3,301.2z M1441.9,272.2v-15.4c0-6-2-10-6-12.3c-4-2.2-10.8-3.3-20.4-3.3
		c-9.3,0-16.1,1.1-20.3,3.3c-4.2,2.2-6.3,6.3-6.3,12.3v15.4H1441.9z"/>
	<path class="st6" d="M1494.2,231h20.3v12c2.1-9.3,14.1-14,35.9-14c14,0,23.8,2.3,29.5,6.8c5.6,4.5,8.5,11.7,8.5,21.4v72.1H1568v-71
		c0-2.6-0.2-4.7-0.7-6.3s-1.4-3.2-2.7-4.9c-3-3.4-9.7-5.1-20.1-5.1c-8,0-14.1,0.5-18.4,1.5c-4.3,1-7.3,2.7-9,5
		c-1.7,2.3-2.6,5.6-2.6,9.7v71h-20.3V231z"/>
	<path class="st6" d="M1652.3,330.8c-3.4-0.3-7.3-0.9-11.6-2c-4.7-1.1-8.3-2.7-10.8-4.9c-2.6-2.2-4.7-5.3-6.5-9.5
		c-1.8-4.1-2.7-9.1-2.7-15.2V263c0-11,2.3-18.8,7-23.5c2.6-2.7,5.2-4.8,7.8-6.2c2.6-1.4,6.1-2.4,10.3-2.9c4.2-0.5,8-0.9,11.3-1.1
		c3.3-0.2,8-0.3,14-0.3c10.4,0,20.8,1,31.1,3v13.4c-12-2.7-23.2-4.1-33.6-4.1c-7.8,0-13.6,0.5-17.3,1.5c-3.7,1-6.2,2.8-7.7,5.5
		c-1.4,2.6-2.1,6.7-2.1,12.1v40.2c0,5,0.8,8.7,2.4,11.2s4.4,4.2,8.6,5.2c4.1,1,10.3,1.5,18.4,1.5c11,0,22-1.3,33-3.9v13.8
		c-10.2,1.9-21.9,2.8-35,2.8C1661.2,331.2,1655.7,331.1,1652.3,330.8z"/>
	<path class="st6" d="M1726.5,301.2v-38.8c0-11.9,3.8-20.5,11.4-25.7c7.6-5.2,19.9-7.8,36.9-7.8c16.1,0,27.7,2.5,34.9,7.5
		c7.1,5,10.7,13.7,10.7,26v21.7H1747V299c0,6.8,2.6,11.6,7.9,14.6c5.3,3,13.4,4.5,24.4,4.5c10.4,0,22.6-1.6,36.8-4.9v14
		c-13.8,2.7-27,4.1-39.5,4.1C1743.2,331.2,1726.5,321.2,1726.5,301.2z M1800.1,272.2v-15.4c0-6-2-10-6-12.3
		c-4-2.2-10.8-3.3-20.4-3.3c-9.3,0-16.1,1.1-20.3,3.3c-4.2,2.2-6.3,6.3-6.3,12.3v15.4H1800.1z"/>
</g>
<g>
	<path class="st4" d="M570.9,319.2c-6.5-0.7-12.9-1.8-19.2-3.3c-6.8-1.6-12.3-3.7-16.7-6.4c-4.4-2.7-7.9-6.2-10.6-10.5
		c-2.7-4.6-4.1-9.8-4.1-15.7v-53c0-6.4,1.5-12.2,4.5-17.4c3-5.2,7.1-9.2,12.2-12.3c4.8-2.7,10.6-5.1,17.3-7.1
		c6.7-2,13.3-3.3,19.7-3.9c5.4-0.5,12-0.8,19.6-0.8c20.8,0,40.6,1.4,59.5,4.1v23.1c-17.4-3.7-37.3-5.5-59.5-5.5
		c-25.4,0-38.1,6.4-38.1,19.2v51.2c0,6.3,3.4,10.7,10.3,13.3c6.8,2.6,17.2,3.9,31,3.9c7.4,0,15.3-1,23.7-2.9v-29.6h-23.9v-20h57.5
		V312c-7.5,2.4-17.1,4.3-28.8,5.9c-11.7,1.6-22.4,2.4-32.1,2.4C584.8,320.2,577.4,319.9,570.9,319.2z"/>
	<path class="st4" d="M684.6,191h58.6c14.3,0,25.6,0.9,33.9,2.5c8.3,1.7,14.4,4.7,18.3,8.9c3.8,4.3,5.8,10.2,5.8,17.7v24.1
		c0,8.4-2.1,14.9-6.2,19.6c-4.1,4.7-10.7,8-19.6,10c-8.9,2-21,2.9-36.2,2.9h-19.4v41.4h-35.2V191z M742.1,255.9
		c9.2,0,15.6-0.9,19.4-2.8c3.8-1.9,5.6-5.1,5.6-9.7V223c0-4.2-1.8-6.9-5.4-8.2c-3.5-1.3-10.1-2-20.1-2h-21.9v43.1H742.1z"/>
	<path class="st4" d="M868.4,253.4L816.7,191h40.6l31.4,42.4l31.1-42.4h40.6l-51.7,62.4l54.1,64.9h-40.8l-33.4-45.1l-33.6,45.1
		h-40.6L868.4,253.4z"/>
	<path class="st4" d="M984.2,223.3h19.7v10.2h0.2c1.6-8.1,13.8-12.2,36.6-12.2c13.6,0,23.9,2.5,30.8,7.6c6.9,5,10.4,11.5,10.4,19.3
		v39c0,5.6-0.9,10.5-2.8,14.7c-1.8,4.2-4.2,7.5-7.2,9.8c-2.7,2.2-6.3,4-11,5.3s-9.3,2.2-13.9,2.5c-4.1,0.4-9.2,0.6-15.1,0.6
		c-6.5,0-12.4-0.7-17.8-2.1c-5.4-1.4-8.8-3.4-10.1-6v46.9h-19.9V223.3z M1050.2,306.8c4.1-1,7-2.8,8.8-5.4c1.8-2.6,2.7-6.6,2.7-12
		v-34.9c0-5.9-0.9-10.3-2.7-13.1c-1.8-2.9-4.7-4.8-8.8-5.8c-4.1-1-10-1.5-17.8-1.5c-7.8,0-13.7,0.5-17.5,1.5c-3.8,1-6.6,2.9-8.2,5.7
		c-1.6,2.8-2.4,7.2-2.4,13.2v34.9c0,5.4,0.8,9.3,2.5,12c1.7,2.6,4.5,4.4,8.5,5.4s9.8,1.5,17.3,1.5
		C1040.2,308.3,1046.1,307.8,1050.2,306.8z"/>
	<path class="st4" d="M1110.6,291.2v-37.5c0-11.5,3.7-19.8,11.2-24.8c7.5-5,19.5-7.6,36.2-7.6c15.8,0,27.2,2.4,34.2,7.3
		c7,4.8,10.5,13.2,10.5,25.1v21h-72V289c0,6.5,2.6,11.2,7.8,14.1c5.2,2.9,13.1,4.3,23.9,4.3c10.2,0,22.2-1.6,36.1-4.7v13.5
		c-13.6,2.6-26.5,3.9-38.8,3.9C1127,320.2,1110.6,310.6,1110.6,291.2z M1182.8,263.2v-14.9c0-5.8-2-9.7-5.9-11.9
		c-3.9-2.2-10.6-3.2-20.1-3.2c-9.2,0-15.8,1.1-19.9,3.2c-4.1,2.2-6.2,6.1-6.2,11.9v14.9H1182.8z"/>
	<path class="st4" d="M1235.1,223.3h18.8v15.5c0-3,1.5-5.9,4.4-8.5c3-2.7,6.7-4.8,11.3-6.5c4.6-1.6,9.1-2.5,13.5-2.5h9.8v15.1h-11.1
		c-9.5,0-16.3,1.1-20.5,3.2s-6.3,6-6.3,11.7v66.9h-19.9V223.3z"/>
	<path class="st4" d="M1314.9,189h19.9v18.4h-19.9V189z M1314.9,223.3h19.9v94.9h-19.9V223.3z"/>
	<path class="st4" d="M1367.4,291.2v-37.5c0-11.5,3.7-19.8,11.2-24.8c7.5-5,19.5-7.6,36.2-7.6c15.8,0,27.2,2.4,34.2,7.3
		c7,4.8,10.5,13.2,10.5,25.1v21h-72V289c0,6.5,2.6,11.2,7.8,14.1c5.2,2.9,13.1,4.3,23.9,4.3c10.2,0,22.2-1.6,36.1-4.7v13.5
		c-13.6,2.6-26.5,3.9-38.8,3.9C1383.8,320.2,1367.4,310.6,1367.4,291.2z M1439.7,263.2v-14.9c0-5.8-2-9.7-5.9-11.9
		c-3.9-2.2-10.6-3.2-20.1-3.2c-9.2,0-15.8,1.1-19.9,3.2c-4.1,2.2-6.2,6.1-6.2,11.9v14.9H1439.7z"/>
	<path class="st4" d="M1492,223.3h19.9v11.6c2.1-9,13.8-13.5,35.2-13.5c13.7,0,23.4,2.2,28.9,6.6c5.5,4.4,8.3,11.3,8.3,20.7v69.6
		h-19.9v-68.6c0-2.5-0.2-4.5-0.7-6.1c-0.4-1.6-1.3-3.1-2.7-4.7c-3-3.3-9.5-4.9-19.7-4.9c-7.8,0-13.9,0.5-18.1,1.5
		c-4.2,1-7.2,2.6-8.9,4.8c-1.7,2.2-2.5,5.4-2.5,9.4v68.6H1492V223.3z"/>
	<path class="st4" d="M1648.1,319.8c-3.3-0.3-7.1-0.9-11.4-2c-4.6-1-8.1-2.6-10.6-4.7c-2.5-2.1-4.7-5.2-6.4-9.2
		c-1.8-3.9-2.7-8.8-2.7-14.7v-34.9c0-10.6,2.3-18.2,6.9-22.8c2.5-2.6,5.1-4.6,7.6-6c2.6-1.4,5.9-2.3,10.1-2.8
		c4.1-0.5,7.8-0.9,11.1-1.1c3.2-0.2,7.8-0.3,13.7-0.3c10.2,0,20.4,1,30.6,2.9v12.9c-11.8-2.6-22.8-3.9-33-3.9
		c-7.7,0-13.3,0.5-17,1.5c-3.6,1-6.1,2.7-7.5,5.3c-1.4,2.5-2.1,6.4-2.1,11.7v38.8c0,4.8,0.8,8.4,2.3,10.8c1.6,2.4,4.4,4,8.4,5
		c4.1,1,10.1,1.5,18.1,1.5c10.8,0,21.6-1.2,32.4-3.7v13.3c-10,1.8-21.5,2.7-34.4,2.7C1656.8,320.2,1651.4,320.1,1648.1,319.8z"/>
	<path class="st4" d="M1721.8,291.2v-37.5c0-11.5,3.7-19.8,11.2-24.8c7.5-5,19.5-7.6,36.2-7.6c15.8,0,27.2,2.4,34.2,7.3
		c7,4.8,10.5,13.2,10.5,25.1v21h-72V289c0,6.5,2.6,11.2,7.8,14.1c5.2,2.9,13.1,4.3,23.9,4.3c10.2,0,22.2-1.6,36.1-4.7v13.5
		c-13.6,2.6-26.5,3.9-38.8,3.9C1738.2,320.2,1721.8,310.6,1721.8,291.2z M1794,263.2v-14.9c0-5.8-2-9.7-5.9-11.9
		c-3.9-2.2-10.6-3.2-20.1-3.2c-9.2,0-15.8,1.1-19.9,3.2c-4.1,2.2-6.2,6.1-6.2,11.9v14.9H1794z"/>
</g>
</svg>
