<?xml version="1.0" encoding="utf-8"?>
<!-- Generator: Adobe Illustrator 23.0.3, SVG Export Plug-In . SVG Version: 6.00 Build 0)  -->
<svg version="1.1" id="Layer_1" xmlns="http://www.w3.org/2000/svg" xmlns:xlink="http://www.w3.org/1999/xlink" x="0px" y="0px"
	 viewBox="0 0 122.9 122.9" style="enable-background:new 0 0 122.9 122.9;" xml:space="preserve">
<style type="text/css">
	.st0{fill:#4E4D4D;}
</style>
<title>add</title>
<path class="st0" d="M61.4,0c33.9,0,61.5,27.5,61.5,61.4s-27.5,61.5-61.4,61.5C27.5,122.9,0,95.4,0,61.5C0,45.2,6.5,29.5,18,18
	C29.5,6.5,45.1,0,61.4,0z M88.6,56.8v9.2c0,2.2-1.8,4-4,4H70v14.6c0,2.2-1.8,4-4,4h-9.2c-2.2,0-4-1.8-4-4V70H38.3c-2.2,0-4-1.8-4-4
	v-9.2c0-2.2,1.8-4,4-4h14.6V38.3c0-2.2,1.8-4,4-4h9.2c2.2,0,4,1.8,4,4v14.6h14.5C86.8,52.8,88.6,54.6,88.6,56.8L88.6,56.8z
	 M97.4,25.5c-19.9-19.9-52.1-19.9-72,0s-19.9,52.1,0,72s52.1,19.9,72,0c9.6-9.5,14.9-22.5,14.9-36C112.3,47.9,107,35,97.4,25.5z"/>
</svg>
