<?xml version="1.0" encoding="utf-8"?>
<!-- Generator: Adobe Illustrator 23.0.3, SVG Export Plug-In . SVG Version: 6.00 Build 0)  -->
<svg version="1.1" id="Layer_1" xmlns="http://www.w3.org/2000/svg" xmlns:xlink="http://www.w3.org/1999/xlink" x="0px" y="0px"
	 viewBox="0 0 122.9 114.3" style="enable-background:new 0 0 122.9 114.3;" xml:space="preserve">
<style type="text/css">
	.st0{fill-rule:evenodd;clip-rule:evenodd;fill:#68B488;stroke:#68B488;stroke-width:5;stroke-miterlimit:10;}
	.st1{fill:#68B488;stroke:#68B488;stroke-width:5;stroke-miterlimit:10;}
</style>
<g>
	<path class="st0" d="M122.9,35.3L87.9,70.6V53c-22.1-4.6-39.5,0.5-52.8,17.3C37.4,35.7,61.1,19,87.9,17.9l0-17.9L122.9,35.3
		L122.9,35.3z"/>
	<path class="st1" d="M6.9,23.7h35.6c-4.6,4-8.7,8.6-12.3,13.8H13.8v62.9h80.6V85.8l13.8-13.6v35.2c0,3.8-3.1,6.9-6.9,6.9H6.9
		c-3.8,0-6.9-3.1-6.9-6.9V30.7C0,26.8,3.1,23.7,6.9,23.7L6.9,23.7z"/>
</g>
</svg>
