<?xml version="1.0" encoding="utf-8"?>
<!-- Generator: Adobe Illustrator 23.0.3, SVG Export Plug-In . SVG Version: 6.00 Build 0)  -->
<svg version="1.1" id="Layer_1" xmlns="http://www.w3.org/2000/svg" xmlns:xlink="http://www.w3.org/1999/xlink" x="0px" y="0px"
	 viewBox="0 0 122.9 117.2" style="enable-background:new 0 0 122.9 117.2;" xml:space="preserve">
<style type="text/css">
	.st0{fill:#FFFFFF;stroke:#4E4D4D;stroke-width:9;stroke-miterlimit:10;}
</style>
<title>black-star</title>
<path class="st0" d="M64.4,2l15.7,36.8l39.9,3.6c1.8,0.2,3.1,1.7,2.9,3.5c-0.1,0.8-0.5,1.6-1.1,2.1l0,0L91.6,74.3l8.9,39
	c0.4,1.7-0.7,3.4-2.4,3.8c-0.9,0.2-1.7,0-2.5-0.4L61.4,96.2l-34.3,20.5c-1.5,0.9-3.5,0.4-4.4-1.1c-0.4-0.7-0.6-1.5-0.4-2.4l0,0
	l8.9-39L1.1,47.9c-1.3-1.2-1.5-3.2-0.3-4.5c0.6-0.6,1.4-1,2.2-1.1l39.7-3.6L58.5,2c0.7-1.6,2.6-2.4,4.2-1.7
	C63.5,0.6,64.1,1.2,64.4,2z"/>
</svg>
