<?xml version="1.0" encoding="utf-8"?>
<!-- Generator: Adobe Illustrator 23.0.3, SVG Export Plug-In . SVG Version: 6.00 Build 0)  -->
<svg version="1.1" id="Layer_1" xmlns="http://www.w3.org/2000/svg" xmlns:xlink="http://www.w3.org/1999/xlink" x="0px" y="0px"
	 viewBox="0 0 83.2 122.9" style="enable-background:new 0 0 83.2 122.9;" xml:space="preserve">
<style type="text/css">
	.st0{stroke:#000000;stroke-width:2;stroke-miterlimit:10;}
</style>
<g>
	<path class="st0" d="M0,2.5C0,1.1,1.1,0,2.5,0s2.5,1.1,2.5,2.5v4.3c17.9,4.5,28,1.1,37.3-2c10.9-3.7,20.8-7,39.5,1.1
		c0.9,0.4,1.5,1.3,1.5,2.2h0v60.6c0,1.4-1.1,2.5-2.5,2.5c-0.4,0-0.7-0.1-1.1-0.2c-15.8-7.2-26-4-36.8-0.6c-10.5,3.3-21.5,6.7-38,2.1
		v48.1c0,1.4-1.1,2.5-2.5,2.5S0,121.8,0,120.4L0,2.5L0,2.5z M4.9,11.8v55.5c15.9,4.8,26.4,1.5,36.5-1.7c10.9-3.4,21.3-6.7,36.9-0.6
		V9.7c-16-6.6-24.8-3.6-34.5-0.3C34,12.7,23.4,16.2,4.9,11.8L4.9,11.8z"/>
</g>
</svg>
