<?xml version="1.0" encoding="utf-8"?>
<!-- Generator: Adobe Illustrator 23.0.3, SVG Export Plug-In . SVG Version: 6.00 Build 0)  -->
<svg version="1.1" id="Layer_1" xmlns="http://www.w3.org/2000/svg" xmlns:xlink="http://www.w3.org/1999/xlink" x="0px" y="0px"
	 viewBox="0 0 122.9 122.9" style="enable-background:new 0 0 122.9 122.9;" xml:space="preserve">
<style type="text/css">
	.st0{fill:#4E4D4D;}
</style>
<title>share-round-line</title>
<path class="st0" d="M61.4,0c33.9,0,61.5,27.5,61.5,61.4s-27.5,61.5-61.4,61.5C27.5,122.9,0,95.4,0,61.5C0,45.2,6.5,29.5,18,18
	C29.5,6.5,45.1,0,61.4,0z M64.5,75.8L50,69.2c-4.3,5-11.7,5.5-16.7,1.3s-5.5-11.7-1.3-16.7s11.7-5.5,16.7-1.3
	c0.1,0.1,0.2,0.2,0.3,0.2l15.4-6.4c-0.1-0.6-0.1-1.2-0.1-1.8c0-6.5,5.2-11.8,11.7-11.8l0,0c6.5,0,11.8,5.3,11.9,11.8
	s-5.3,11.8-11.8,11.9c-2.8,0-5.5-1-7.6-2.8L52.8,60c0.1,0.5,0.1,0.9,0.1,1.3l16.3,7.6c5.3-3.7,12.6-2.5,16.4,2.9
	c3.7,5.3,2.5,12.6-2.9,16.4c-5.3,3.7-12.6,2.5-16.4-2.9c-1.4-2-2.1-4.4-2.1-6.8C64.2,77.6,64.3,76.7,64.5,75.8L64.5,75.8z M97.9,25
	C77.8,4.9,45.1,4.9,25,25S4.9,77.8,25,97.9s52.8,20.1,72.9,0c9.7-9.7,15.1-22.8,15.1-36.4C113,47.8,107.6,34.7,97.9,25z"/>
</svg>
