<?xml version="1.0" encoding="utf-8"?>
<!-- Generator: Adobe Illustrator 23.0.3, SVG Export Plug-In . SVG Version: 6.00 Build 0)  -->
<svg version="1.1" id="Calque_1" xmlns="http://www.w3.org/2000/svg" xmlns:xlink="http://www.w3.org/1999/xlink" x="0px" y="0px"
	 viewBox="0 0 38 38" style="enable-background:new 0 0 38 38;" xml:space="preserve">
<style type="text/css">
	.st0{fill:#414141;}
</style>
<path class="st0" d="M36.5,11.6C32.5,2,21.3-2.6,11.7,1.5C2,5.5-2.6,16.7,1.5,26.3C5.5,36,16.7,40.6,26.4,36.5S40.6,21.3,36.5,11.6z
	 M19,4.6c3,0,5.4,2.5,5.4,5.4c0,3-2.4,5.4-5.4,5.4S13.6,13,13.6,10S16,4.6,19,4.6z M26.4,29.9H11.6c-1.4,0-2.6-1.1-2.6-2.6
	c0-5.5,4.5-10,10-10s10,4.5,10,10C29,28.7,27.9,29.9,26.4,29.9z"/>
</svg>
